<svg xmlns="http://www.w3.org/2000/svg" width="1200" height="750" viewBox="0 0 1200 750">
  <defs>
    <linearGradient id="bg" x1="0" y1="0" x2="1" y2="1">
      <stop offset="0" stop-color="#1C1F22"/>
      <stop offset="1" stop-color="#26292C"/>
    </linearGradient>
    <linearGradient id="accent" x1="0" y1="0" x2="1" y2="0">
      <stop offset="0" stop-color="#418CFF" stop-opacity="0.95"/>
      <stop offset="1" stop-color="#418CFF" stop-opacity="0.25"/>
    </linearGradient>
    <filter id="shadow" x="-20%" y="-20%" width="140%" height="140%">
      <feDropShadow dx="0" dy="18" stdDeviation="18" flood-color="#000" flood-opacity="0.45"/>
    </filter>
  </defs>
  <rect width="1200" height="750" fill="url(#bg)"/>
  <rect x="90" y="90" width="1020" height="570" rx="34" fill="#232629" opacity="0.92" filter="url(#shadow)"/>
  <rect x="90" y="90" width="1020" height="10" fill="url(#accent)"/>
  <circle cx="160" cy="160" r="44" fill="#418CFF" opacity="0.18"/>
  <circle cx="1030" cy="610" r="60" fill="#418CFF" opacity="0.12"/>

  <text x="140" y="230" fill="#F5F5F5" font-family="Segoe UI, Arial" font-size="52" font-weight="900">ThinkPad X1 Carbon</text>
  <text x="140" y="290" fill="#A1A1A1" font-family="Segoe UI, Arial" font-size="26" font-weight="700">Laptops • Very Good • Verified</text>

  <g><rect x="760" y="250" width="340" height="220" rx="18" fill="#0f1318" stroke="rgba(65,140,255,0.55)" stroke-width="3"/><rect x="790" y="280" width="280" height="150" rx="14" fill="rgba(65,140,255,0.10)"/><path d="M720 490h420l-30 40H750z" fill="rgba(255,255,255,0.08)" stroke="rgba(255,255,255,0.10)"/></g>

  <g opacity="0.9">
    <rect x="140" y="360" width="560" height="230" rx="26" fill="#26292C" stroke="rgba(255,255,255,0.10)"/>
    <rect x="190" y="405" width="340" height="22" rx="11" fill="#418CFF" opacity="0.35"/>
    <rect x="190" y="450" width="480" height="16" rx="8" fill="#FFFFFF" opacity="0.10"/>
    <rect x="190" y="482" width="410" height="16" rx="8" fill="#FFFFFF" opacity="0.08"/>
    <rect x="190" y="514" width="300" height="16" rx="8" fill="#FFFFFF" opacity="0.06"/>
  </g>
</svg>