<svg xmlns="http://www.w3.org/2000/svg" width="1200" height="750" viewBox="0 0 1200 750">
  <defs>
    <linearGradient id="bg" x1="0" y1="0" x2="1" y2="1">
      <stop offset="0" stop-color="#1C1F22"/>
      <stop offset="1" stop-color="#26292C"/>
    </linearGradient>
    <linearGradient id="accent" x1="0" y1="0" x2="1" y2="0">
      <stop offset="0" stop-color="#418CFF" stop-opacity="0.95"/>
      <stop offset="1" stop-color="#418CFF" stop-opacity="0.25"/>
    </linearGradient>
    <filter id="shadow" x="-20%" y="-20%" width="140%" height="140%">
      <feDropShadow dx="0" dy="18" stdDeviation="18" flood-color="#000" flood-opacity="0.45"/>
    </filter>
  </defs>
  <rect width="1200" height="750" fill="url(#bg)"/>
  <rect x="90" y="90" width="1020" height="570" rx="34" fill="#232629" opacity="0.92" filter="url(#shadow)"/>
  <rect x="90" y="90" width="1020" height="10" fill="url(#accent)"/>
  <circle cx="160" cy="160" r="44" fill="#418CFF" opacity="0.18"/>
  <circle cx="1030" cy="610" r="60" fill="#418CFF" opacity="0.12"/>
  <text x="140" y="260" fill="#F5F5F5" font-family="Segoe UI, Arial" font-size="54" font-weight="800">Galaxy Tab S9</text>
  <text x="140" y="322" fill="#A1A1A1" font-family="Segoe UI, Arial" font-size="28" font-weight="600">128GB • AMOLED • Pen</text>
  <g opacity="0.95">
    <rect x="140" y="380" width="920" height="210" rx="28" fill="#26292C" stroke="rgba(255,255,255,0.10)"/>
    <rect x="190" y="420" width="340" height="24" rx="12" fill="#418CFF" opacity="0.35"/>
    <rect x="190" y="468" width="520" height="18" rx="9" fill="#FFFFFF" opacity="0.10"/>
    <rect x="190" y="504" width="440" height="18" rx="9" fill="#FFFFFF" opacity="0.08"/>
    <rect x="760" y="430" width="250" height="130" rx="18" fill="#1C1F22" stroke="rgba(65,140,255,0.35)"/>
    <text x="785" y="505" fill="#418CFF" font-family="Segoe UI, Arial" font-size="26" font-weight="800">Verified</text>
    <text x="785" y="545" fill="#A1A1A1" font-family="Segoe UI, Arial" font-size="18" font-weight="600">Pre-owned quality</text>
  </g>
</svg>